<svg width="67" height="51" viewBox="0 0 67 51" fill="none" xmlns="http://www.w3.org/2000/svg">
<rect x="1.90002" y="1.5" width="63" height="48" rx="11.5" fill="#FC8204"/>
<path d="M22.5583 32.22C22.5583 30.72 22.7983 29.44 23.2783 28.38C23.7583 27.3 24.6183 26.11 25.8583 24.81C27.0783 23.51 27.9183 22.4 28.3783 21.48C28.8583 20.56 29.0983 19.6 29.0983 18.6C29.0983 17.7 28.9483 17.08 28.6483 16.74C28.3683 16.38 27.9483 16.2 27.3883 16.2C26.2483 16.2 25.6783 16.89 25.6783 18.27V20.52H22.5583V18.48C22.5583 16.78 22.9783 15.48 23.8183 14.58C24.6583 13.66 25.8783 13.2 27.4783 13.2C29.0783 13.2 30.2983 13.66 31.1383 14.58C31.9783 15.48 32.3983 16.78 32.3983 18.48C32.3983 19.76 32.0883 21.01 31.4683 22.23C30.8683 23.45 29.8183 24.85 28.3183 26.43C27.3383 27.47 26.6783 28.32 26.3383 28.98C25.9983 29.62 25.8283 30.31 25.8283 31.05V31.5H32.0983V34.5H22.5583V32.22ZM39.4 34.8C37.78 34.8 36.54 34.34 35.68 33.42C34.82 32.5 34.39 31.2 34.39 29.52V18.48C34.39 16.8 34.82 15.5 35.68 14.58C36.54 13.66 37.78 13.2 39.4 13.2C41.02 13.2 42.26 13.66 43.12 14.58C43.98 15.5 44.41 16.8 44.41 18.48V29.52C44.41 31.2 43.98 32.5 43.12 33.42C42.26 34.34 41.02 34.8 39.4 34.8ZM39.4 31.8C40.54 31.8 41.11 31.11 41.11 29.73V18.27C41.11 16.89 40.54 16.2 39.4 16.2C38.26 16.2 37.69 16.89 37.69 18.27V29.73C37.69 31.11 38.26 31.8 39.4 31.8Z" fill="white"/>
<rect x="1.90002" y="1.5" width="63" height="48" rx="11.5" stroke="url(#paint0_linear_157_671)" stroke-width="3"/>
<defs>
<linearGradient id="paint0_linear_157_671" x1="33.4" y1="3" x2="33.4" y2="48" gradientUnits="userSpaceOnUse">
<stop stop-color="#F7F273"/>
<stop offset="1" stop-color="#F1AF22"/>
</linearGradient>
</defs>
</svg>
