<svg width="67" height="51" viewBox="0 0 67 51" fill="none" xmlns="http://www.w3.org/2000/svg">
<rect x="2.30005" y="1.5" width="63" height="48" rx="11.5" fill="#FC8204"/>
<path d="M27.6383 18.48H24.1883V16.14C25.1283 16.14 25.8783 16.06 26.4383 15.9C27.0183 15.74 27.4783 15.48 27.8183 15.12C28.1583 14.74 28.4583 14.2 28.7183 13.5H30.9383V34.5H27.6383V18.48ZM39.71 34.8C38.09 34.8 36.86 34.35 36.02 33.45C35.2 32.55 34.79 31.26 34.79 29.58V27.87H37.91V29.73C37.91 31.11 38.48 31.8 39.62 31.8C40.18 31.8 40.6 31.63 40.88 31.29C41.18 30.93 41.33 30.31 41.33 29.43V27.72C41.33 26.76 41.16 26.08 40.82 25.68C40.48 25.26 39.93 25.05 39.17 25.05H38.06V22.05H39.26C39.92 22.05 40.41 21.88 40.73 21.54C41.07 21.2 41.24 20.63 41.24 19.83V18.3C41.24 17.58 41.09 17.05 40.79 16.71C40.49 16.37 40.09 16.2 39.59 16.2C38.53 16.2 38 16.85 38 18.15V19.53H34.88V18.42C34.88 16.74 35.29 15.45 36.11 14.55C36.95 13.65 38.15 13.2 39.71 13.2C41.29 13.2 42.49 13.65 43.31 14.55C44.13 15.43 44.54 16.71 44.54 18.39V19.14C44.54 20.28 44.35 21.2 43.97 21.9C43.59 22.58 43 23.07 42.2 23.37V23.43C43.06 23.75 43.68 24.27 44.06 24.99C44.44 25.71 44.63 26.63 44.63 27.75V29.61C44.63 31.29 44.21 32.58 43.37 33.48C42.55 34.36 41.33 34.8 39.71 34.8Z" fill="white"/>
<rect x="2.30005" y="1.5" width="63" height="48" rx="11.5" stroke="url(#paint0_linear_157_212)" stroke-width="3"/>
<defs>
<linearGradient id="paint0_linear_157_212" x1="33.8" y1="3" x2="33.8" y2="48" gradientUnits="userSpaceOnUse">
<stop stop-color="#F7F273"/>
<stop offset="1" stop-color="#F1AF22"/>
</linearGradient>
</defs>
</svg>
