<svg width="67" height="51" viewBox="0 0 67 51" fill="none" xmlns="http://www.w3.org/2000/svg">
<rect x="2.1001" y="1.5" width="63" height="48" rx="11.5" fill="#FC8204"/>
<path d="M27.4384 18.48H23.9884V16.14C24.9284 16.14 25.6784 16.06 26.2384 15.9C26.8184 15.74 27.2784 15.48 27.6184 15.12C27.9584 14.74 28.2584 14.2 28.5184 13.5H30.7384V34.5H27.4384V18.48ZM39.6601 34.8C38.0601 34.8 36.8401 34.35 36.0001 33.45C35.1601 32.53 34.7401 31.22 34.7401 29.52V27.87H37.8601V29.76C37.8601 31.12 38.4301 31.8 39.5701 31.8C40.7101 31.8 41.2801 31.12 41.2801 29.76V25.05C41.2801 23.67 40.7101 22.98 39.5701 22.98C38.4301 22.98 37.8601 23.67 37.8601 25.05V25.23H34.7401L35.3401 13.5H44.0401V16.5H38.2801L38.0101 21.51H38.0701C38.6901 20.49 39.6401 19.98 40.9201 19.98C42.1201 19.98 43.0301 20.39 43.6501 21.21C44.2701 22.03 44.5801 23.22 44.5801 24.78V29.52C44.5801 31.22 44.1601 32.53 43.3201 33.45C42.4801 34.35 41.2601 34.8 39.6601 34.8Z" fill="white"/>
<rect x="2.1001" y="1.5" width="63" height="48" rx="11.5" stroke="url(#paint0_linear_157_467)" stroke-width="3"/>
<defs>
<linearGradient id="paint0_linear_157_467" x1="33.6001" y1="3" x2="33.6001" y2="48" gradientUnits="userSpaceOnUse">
<stop stop-color="#F7F273"/>
<stop offset="1" stop-color="#F1AF22"/>
</linearGradient>
</defs>
</svg>
