<svg width="67" height="51" viewBox="0 0 67 51" fill="none" xmlns="http://www.w3.org/2000/svg">
<rect x="1.90002" y="1.5" width="63" height="48" rx="11.5" fill="#FC8204"/>
<path d="M27.2383 18.48H23.7883V16.14C24.7283 16.14 25.4783 16.06 26.0383 15.9C26.6183 15.74 27.0783 15.48 27.4183 15.12C27.7583 14.74 28.0583 14.2 28.3183 13.5H30.5383V34.5H27.2383V18.48ZM34.57 32.22C34.57 30.72 34.81 29.44 35.29 28.38C35.77 27.3 36.63 26.11 37.87 24.81C39.09 23.51 39.93 22.4 40.39 21.48C40.87 20.56 41.11 19.6 41.11 18.6C41.11 17.7 40.96 17.08 40.66 16.74C40.38 16.38 39.96 16.2 39.4 16.2C38.26 16.2 37.69 16.89 37.69 18.27V20.52H34.57V18.48C34.57 16.78 34.99 15.48 35.83 14.58C36.67 13.66 37.89 13.2 39.49 13.2C41.09 13.2 42.31 13.66 43.15 14.58C43.99 15.48 44.41 16.78 44.41 18.48C44.41 19.76 44.1 21.01 43.48 22.23C42.88 23.45 41.83 24.85 40.33 26.43C39.35 27.47 38.69 28.32 38.35 28.98C38.01 29.62 37.84 30.31 37.84 31.05V31.5H44.11V34.5H34.57V32.22Z" fill="white"/>
<rect x="1.90002" y="1.5" width="63" height="48" rx="11.5" stroke="url(#paint0_linear_157_527)" stroke-width="3"/>
<defs>
<linearGradient id="paint0_linear_157_527" x1="33.4" y1="3" x2="33.4" y2="48" gradientUnits="userSpaceOnUse">
<stop stop-color="#F7F273"/>
<stop offset="1" stop-color="#F1AF22"/>
</linearGradient>
</defs>
</svg>
