<svg width="67" height="51" viewBox="0 0 67 51" fill="none" xmlns="http://www.w3.org/2000/svg">
<rect x="1.70007" y="1.5" width="63" height="48" rx="11.5" fill="#FC8204"/>
<path d="M27.0384 18.48H23.5884V16.14C24.5284 16.14 25.2784 16.06 25.8384 15.9C26.4184 15.74 26.8784 15.48 27.2184 15.12C27.5584 14.74 27.8584 14.2 28.1184 13.5H30.3384V34.5H27.0384V18.48ZM39.9501 30.69H33.6501V27.69L39.6501 13.5H43.2501V27.69H44.8101V30.69H43.2501V34.5H39.9501V30.69ZM39.9501 27.69V19.5H39.8901L36.6501 27.69H39.9501Z" fill="white"/>
<rect x="1.70007" y="1.5" width="63" height="48" rx="11.5" stroke="url(#paint0_linear_157_407)" stroke-width="3"/>
<defs>
<linearGradient id="paint0_linear_157_407" x1="33.2001" y1="3" x2="33.2001" y2="48" gradientUnits="userSpaceOnUse">
<stop stop-color="#F7F273"/>
<stop offset="1" stop-color="#F1AF22"/>
</linearGradient>
</defs>
</svg>
