<svg width="67" height="51" viewBox="0 0 67 51" fill="none" xmlns="http://www.w3.org/2000/svg">
<rect x="2.1001" y="1.5" width="63" height="48" rx="11.5" fill="#FC8204"/>
<path d="M33.6542 34.8C32.0542 34.8 30.8342 34.35 29.9942 33.45C29.1542 32.53 28.7342 31.22 28.7342 29.52V27.87H31.8542V29.76C31.8542 31.12 32.4242 31.8 33.5642 31.8C34.7042 31.8 35.2742 31.12 35.2742 29.76V25.05C35.2742 23.67 34.7042 22.98 33.5642 22.98C32.4242 22.98 31.8542 23.67 31.8542 25.05V25.23H28.7342L29.3342 13.5H38.0342V16.5H32.2742L32.0042 21.51H32.0642C32.6842 20.49 33.6342 19.98 34.9142 19.98C36.1142 19.98 37.0242 20.39 37.6442 21.21C38.2642 22.03 38.5742 23.22 38.5742 24.78V29.52C38.5742 31.22 38.1542 32.53 37.3142 33.45C36.4742 34.35 35.2542 34.8 33.6542 34.8Z" fill="white"/>
<rect x="2.1001" y="1.5" width="63" height="48" rx="11.5" stroke="url(#paint0_linear_141_414)" stroke-width="3"/>
<defs>
<linearGradient id="paint0_linear_141_414" x1="33.6001" y1="3" x2="33.6001" y2="48" gradientUnits="userSpaceOnUse">
<stop stop-color="#F7F273"/>
<stop offset="1" stop-color="#F1AF22"/>
</linearGradient>
</defs>
</svg>
