<svg width="67" height="51" viewBox="0 0 67 51" fill="none" xmlns="http://www.w3.org/2000/svg">
<rect x="2.30005" y="1.5" width="63" height="48" rx="11.5" fill="#FC8204"/>
<path d="M33.7942 34.8C32.1342 34.8 30.8542 34.36 29.9542 33.48C29.0742 32.58 28.6342 31.29 28.6342 29.61V27.75C28.6342 26.71 28.8042 25.84 29.1442 25.14C29.4842 24.42 30.0342 23.86 30.7942 23.46V23.4C30.0942 23.02 29.5742 22.5 29.2342 21.84C28.9142 21.16 28.7542 20.3 28.7542 19.26V18.39C28.7542 16.71 29.1842 15.43 30.0442 14.55C30.9242 13.65 32.1742 13.2 33.7942 13.2C35.4142 13.2 36.6542 13.65 37.5142 14.55C38.3942 15.43 38.8342 16.71 38.8342 18.39V19.26C38.8342 21.26 38.1542 22.64 36.7942 23.4V23.46C37.5542 23.86 38.1042 24.42 38.4442 25.14C38.7842 25.84 38.9542 26.71 38.9542 27.75V29.61C38.9542 31.29 38.5042 32.58 37.6042 33.48C36.7242 34.36 35.4542 34.8 33.7942 34.8ZM33.7942 22.05C34.9542 22.05 35.5342 21.35 35.5342 19.95V18.3C35.5342 16.9 34.9542 16.2 33.7942 16.2C32.6342 16.2 32.0542 16.9 32.0542 18.3V19.95C32.0542 21.35 32.6342 22.05 33.7942 22.05ZM33.7942 31.8C35.0342 31.8 35.6542 31.01 35.6542 29.43V27.42C35.6542 25.84 35.0342 25.05 33.7942 25.05C32.5542 25.05 31.9342 25.84 31.9342 27.42V29.43C31.9342 31.01 32.5542 31.8 33.7942 31.8Z" fill="white"/>
<rect x="2.30005" y="1.5" width="63" height="48" rx="11.5" stroke="url(#paint0_linear_157_272)" stroke-width="3"/>
<defs>
<linearGradient id="paint0_linear_157_272" x1="33.8" y1="3" x2="33.8" y2="48" gradientUnits="userSpaceOnUse">
<stop stop-color="#F7F273"/>
<stop offset="1" stop-color="#F1AF22"/>
</linearGradient>
</defs>
</svg>
