<svg width="66" height="51" viewBox="0 0 66 51" fill="none" xmlns="http://www.w3.org/2000/svg">
<rect x="1.5" y="1.5" width="63" height="48" rx="11.5" fill="#FC8204"/>
<path d="M26.8383 18.48H23.3883V16.14C24.3283 16.14 25.0783 16.06 25.6383 15.9C26.2183 15.74 26.6783 15.48 27.0183 15.12C27.3583 14.74 27.6583 14.2 27.9183 13.5H30.1383V34.5H26.8383V18.48ZM39.09 34.8C37.47 34.8 36.23 34.34 35.37 33.42C34.51 32.5 34.08 31.2 34.08 29.52V18.66C34.08 15.02 35.76 13.2 39.12 13.2C40.72 13.2 41.94 13.66 42.78 14.58C43.62 15.48 44.04 16.78 44.04 18.48V18.87H40.92V18.27C40.92 16.89 40.35 16.2 39.21 16.2C38.59 16.2 38.13 16.39 37.83 16.77C37.53 17.15 37.38 17.82 37.38 18.78V22.8H37.44C38.02 21.58 39.02 20.97 40.44 20.97C41.64 20.97 42.55 21.38 43.17 22.2C43.79 23.02 44.1 24.21 44.1 25.77V29.52C44.1 31.2 43.67 32.5 42.81 33.42C41.95 34.34 40.71 34.8 39.09 34.8ZM39.09 31.8C40.23 31.8 40.8 31.12 40.8 29.76V26.04C40.8 24.66 40.23 23.97 39.09 23.97C37.95 23.97 37.38 24.66 37.38 26.04V29.76C37.38 31.12 37.95 31.8 39.09 31.8Z" fill="white"/>
<rect x="1.5" y="1.5" width="63" height="48" rx="11.5" stroke="url(#paint0_linear_157_152)" stroke-width="3"/>
<defs>
<linearGradient id="paint0_linear_157_152" x1="33" y1="3" x2="33" y2="48" gradientUnits="userSpaceOnUse">
<stop stop-color="#F7F273"/>
<stop offset="1" stop-color="#F1AF22"/>
</linearGradient>
</defs>
</svg>
