<svg width="255" height="160" viewBox="0 0 255 160" fill="none" xmlns="http://www.w3.org/2000/svg">
<mask id="path-2-inside-1_104_4470" fill="white">
<path fill-rule="evenodd" clip-rule="evenodd" d="M216.017 10H37.9831C37.4673 25.2213 25.2213 37.4673 10 37.9831V121C26.0163 121 39 133.984 39 150H216C216 133.984 228.984 121 245 121V38C229.318 38 216.544 25.5532 216.017 10Z"/>
</mask>
<path fill-rule="evenodd" clip-rule="evenodd" d="M216.017 10H37.9831C37.4673 25.2213 25.2213 37.4673 10 37.9831V121C26.0163 121 39 133.984 39 150H216C216 133.984 228.984 121 245 121V38C229.318 38 216.544 25.5532 216.017 10Z" fill="white"/>
<path d="M37.9831 10V5H33.1496L32.986 9.83067L37.9831 10ZM216.017 10L221.014 9.83067L220.85 5H216.017V10ZM10 37.9831L9.83067 32.986L5 33.1496V37.9831H10ZM10 121H5V126H10V121ZM39 150H34V155H39V150ZM216 150V155H221V150H216ZM245 121V126H250V121H245ZM245 38H250V33H245V38ZM37.9831 15H216.017V5H37.9831V15ZM10.1693 42.9802C28.0191 42.3754 42.3754 28.0191 42.9802 10.1693L32.986 9.83067C32.5592 22.4234 22.4234 32.5592 9.83067 32.986L10.1693 42.9802ZM15 121V37.9831H5V121H15ZM10 126C23.2548 126 34 136.745 34 150H44C44 131.222 28.7777 116 10 116V126ZM216 145H39V155H216V145ZM245 116C226.222 116 211 131.222 211 150H221C221 136.745 231.745 126 245 126V116ZM240 38V121H250V38H240ZM211.02 10.1693C211.638 28.4073 226.614 43 245 43V33C232.023 33 221.45 22.6991 221.014 9.83067L211.02 10.1693Z" fill="url(#paint0_linear_104_4470)" mask="url(#path-2-inside-1_104_4470)"/>
<path d="M89.5432 80.06L85.5532 68H89.0632L91.3132 75.71H91.3732L93.6232 68H96.8332L92.8432 80.06V89H89.5432V80.06ZM102.563 89.3C100.943 89.3 99.7025 88.84 98.8425 87.92C97.9825 87 97.5525 85.7 97.5525 84.02V72.98C97.5525 71.3 97.9825 70 98.8425 69.08C99.7025 68.16 100.943 67.7 102.563 67.7C104.183 67.7 105.423 68.16 106.283 69.08C107.143 70 107.573 71.3 107.573 72.98V84.02C107.573 85.7 107.143 87 106.283 87.92C105.423 88.84 104.183 89.3 102.563 89.3ZM102.563 86.3C103.703 86.3 104.272 85.61 104.272 84.23V72.77C104.272 71.39 103.703 70.7 102.563 70.7C101.423 70.7 100.853 71.39 100.853 72.77V84.23C100.853 85.61 101.423 86.3 102.563 86.3ZM114.604 89.3C113.004 89.3 111.784 88.85 110.944 87.95C110.104 87.03 109.684 85.72 109.684 84.02V68H112.984V84.26C112.984 84.98 113.124 85.5 113.404 85.82C113.704 86.14 114.124 86.3 114.664 86.3C115.204 86.3 115.614 86.14 115.894 85.82C116.194 85.5 116.344 84.98 116.344 84.26V68H119.524V84.02C119.524 85.72 119.104 87.03 118.264 87.95C117.424 88.85 116.204 89.3 114.604 89.3ZM126.679 68H129.979V86H135.409V89H126.679V68ZM141.645 89.3C140.025 89.3 138.785 88.84 137.925 87.92C137.065 87 136.635 85.7 136.635 84.02V72.98C136.635 71.3 137.065 70 137.925 69.08C138.785 68.16 140.025 67.7 141.645 67.7C143.265 67.7 144.505 68.16 145.365 69.08C146.225 70 146.655 71.3 146.655 72.98V84.02C146.655 85.7 146.225 87 145.365 87.92C144.505 88.84 143.265 89.3 141.645 89.3ZM141.645 86.3C142.785 86.3 143.355 85.61 143.355 84.23V72.77C143.355 71.39 142.785 70.7 141.645 70.7C140.505 70.7 139.935 71.39 139.935 72.77V84.23C139.935 85.61 140.505 86.3 141.645 86.3ZM153.176 89.3C151.576 89.3 150.366 88.85 149.546 87.95C148.726 87.03 148.316 85.72 148.316 84.02V82.82H151.436V84.26C151.436 85.62 152.006 86.3 153.146 86.3C153.706 86.3 154.126 86.14 154.406 85.82C154.706 85.48 154.856 84.94 154.856 84.2C154.856 83.32 154.656 82.55 154.256 81.89C153.856 81.21 153.116 80.4 152.036 79.46C150.676 78.26 149.726 77.18 149.186 76.22C148.646 75.24 148.376 74.14 148.376 72.92C148.376 71.26 148.796 69.98 149.636 69.08C150.476 68.16 151.696 67.7 153.296 67.7C154.876 67.7 156.066 68.16 156.866 69.08C157.686 69.98 158.096 71.28 158.096 72.98V73.85H154.976V72.77C154.976 72.05 154.836 71.53 154.556 71.21C154.276 70.87 153.866 70.7 153.326 70.7C152.226 70.7 151.676 71.37 151.676 72.71C151.676 73.47 151.876 74.18 152.276 74.84C152.696 75.5 153.446 76.3 154.526 77.24C155.906 78.44 156.856 79.53 157.376 80.51C157.896 81.49 158.156 82.64 158.156 83.96C158.156 85.68 157.726 87 156.866 87.92C156.026 88.84 154.796 89.3 153.176 89.3ZM160.048 68H169.048V71H163.348V76.55H167.878V79.55H163.348V86H169.048V89H160.048V68Z" fill="#E37504"/>
<path d="M250 6.41L248.59 5L243 10.59L237.41 5L236 6.41L241.59 12L236 17.59L237.41 19L243 13.41L248.59 19L250 17.59L244.41 12L250 6.41Z" fill="url(#paint1_linear_104_4470)"/>
<defs>
<linearGradient id="paint0_linear_104_4470" x1="127.5" y1="10" x2="127.5" y2="150" gradientUnits="userSpaceOnUse">
<stop stop-color="#F7F273"/>
<stop offset="1" stop-color="#F1AF22"/>
</linearGradient>
<linearGradient id="paint1_linear_104_4470" x1="243" y1="5" x2="243" y2="19" gradientUnits="userSpaceOnUse">
<stop stop-color="#F7F273"/>
<stop offset="1" stop-color="#F1AF22"/>
</linearGradient>
</defs>
</svg>
