<svg width="218" height="56" viewBox="0 0 218 56" fill="none" xmlns="http://www.w3.org/2000/svg">
<rect x="1.5" y="1.5" width="215" height="53" rx="11.5" fill="#FC8204"/>
<path d="M77.7105 18H81.0105V36H86.4405V39H77.7105V18ZM88.023 18H97.023V21H91.323V26.55H95.853V29.55H91.323V36H97.023V39H88.023V18ZM98.0514 18H101.381L103.541 34.29H103.601L105.761 18H108.791L105.611 39H101.231L98.0514 18ZM110.376 18H119.376V21H113.676V26.55H118.206V29.55H113.676V36H119.376V39H110.376V18ZM121.275 18H124.575V36H130.005V39H121.275V18ZM135.877 39.3C134.277 39.3 133.067 38.85 132.247 37.95C131.427 37.03 131.017 35.72 131.017 34.02V32.82H134.137V34.26C134.137 35.62 134.707 36.3 135.847 36.3C136.407 36.3 136.827 36.14 137.107 35.82C137.407 35.48 137.557 34.94 137.557 34.2C137.557 33.32 137.357 32.55 136.957 31.89C136.557 31.21 135.817 30.4 134.737 29.46C133.377 28.26 132.427 27.18 131.887 26.22C131.347 25.24 131.077 24.14 131.077 22.92C131.077 21.26 131.497 19.98 132.337 19.08C133.177 18.16 134.397 17.7 135.997 17.7C137.577 17.7 138.767 18.16 139.567 19.08C140.387 19.98 140.797 21.28 140.797 22.98V23.85H137.677V22.77C137.677 22.05 137.537 21.53 137.257 21.21C136.977 20.87 136.567 20.7 136.027 20.7C134.927 20.7 134.377 21.37 134.377 22.71C134.377 23.47 134.577 24.18 134.977 24.84C135.397 25.5 136.147 26.3 137.227 27.24C138.607 28.44 139.557 29.53 140.077 30.51C140.597 31.49 140.857 32.64 140.857 33.96C140.857 35.68 140.427 37 139.567 37.92C138.727 38.84 137.497 39.3 135.877 39.3Z" fill="white"/>
<rect x="1.5" y="1.5" width="215" height="53" rx="11.5" stroke="url(#paint0_linear_104_3531)" stroke-width="3"/>
<defs>
<linearGradient id="paint0_linear_104_3531" x1="109" y1="3" x2="109" y2="53" gradientUnits="userSpaceOnUse">
<stop stop-color="#F7F273"/>
<stop offset="1" stop-color="#F1AF22"/>
</linearGradient>
</defs>
</svg>
