<svg width="67" height="51" viewBox="0 0 67 51" fill="none" xmlns="http://www.w3.org/2000/svg">
<rect x="2.30005" y="1.5" width="63" height="48" rx="11.5" fill="#FC8204"/>
<path d="M33.7042 34.8C32.0842 34.8 30.8542 34.35 30.0142 33.45C29.1942 32.55 28.7842 31.26 28.7842 29.58V27.87H31.9042V29.73C31.9042 31.11 32.4742 31.8 33.6142 31.8C34.1742 31.8 34.5942 31.63 34.8742 31.29C35.1742 30.93 35.3242 30.31 35.3242 29.43V27.72C35.3242 26.76 35.1542 26.08 34.8142 25.68C34.4742 25.26 33.9242 25.05 33.1642 25.05H32.0542V22.05H33.2542C33.9142 22.05 34.4042 21.88 34.7242 21.54C35.0642 21.2 35.2342 20.63 35.2342 19.83V18.3C35.2342 17.58 35.0842 17.05 34.7842 16.71C34.4842 16.37 34.0842 16.2 33.5842 16.2C32.5242 16.2 31.9942 16.85 31.9942 18.15V19.53H28.8742V18.42C28.8742 16.74 29.2842 15.45 30.1042 14.55C30.9442 13.65 32.1442 13.2 33.7042 13.2C35.2842 13.2 36.4842 13.65 37.3042 14.55C38.1242 15.43 38.5342 16.71 38.5342 18.39V19.14C38.5342 20.28 38.3442 21.2 37.9642 21.9C37.5842 22.58 36.9942 23.07 36.1942 23.37V23.43C37.0542 23.75 37.6742 24.27 38.0542 24.99C38.4342 25.71 38.6242 26.63 38.6242 27.75V29.61C38.6242 31.29 38.2042 32.58 37.3642 33.48C36.5442 34.36 35.3242 34.8 33.7042 34.8Z" fill="white"/>
<rect x="2.30005" y="1.5" width="63" height="48" rx="11.5" stroke="url(#paint0_linear_141_324)" stroke-width="3"/>
<defs>
<linearGradient id="paint0_linear_141_324" x1="33.8" y1="3" x2="33.8" y2="48" gradientUnits="userSpaceOnUse">
<stop stop-color="#F7F273"/>
<stop offset="1" stop-color="#F1AF22"/>
</linearGradient>
</defs>
</svg>
