<svg width="67" height="51" viewBox="0 0 67 51" fill="none" xmlns="http://www.w3.org/2000/svg">
<rect x="2.1001" y="1.5" width="63" height="48" rx="11.5" fill="#FC8204"/>
<path d="M27.4384 18.48H23.9884V16.14C24.9284 16.14 25.6784 16.06 26.2384 15.9C26.8184 15.74 27.2784 15.48 27.6184 15.12C27.9584 14.74 28.2584 14.2 28.5184 13.5H30.7384V34.5H27.4384V18.48ZM39.6001 34.8C37.9801 34.8 36.7401 34.34 35.8801 33.42C35.0201 32.5 34.5901 31.2 34.5901 29.52V18.48C34.5901 16.8 35.0201 15.5 35.8801 14.58C36.7401 13.66 37.9801 13.2 39.6001 13.2C41.2201 13.2 42.4601 13.66 43.3201 14.58C44.1801 15.5 44.6101 16.8 44.6101 18.48V29.52C44.6101 31.2 44.1801 32.5 43.3201 33.42C42.4601 34.34 41.2201 34.8 39.6001 34.8ZM39.6001 31.8C40.7401 31.8 41.3101 31.11 41.3101 29.73V18.27C41.3101 16.89 40.7401 16.2 39.6001 16.2C38.4601 16.2 37.8901 16.89 37.8901 18.27V29.73C37.8901 31.11 38.4601 31.8 39.6001 31.8Z" fill="white"/>
<rect x="2.1001" y="1.5" width="63" height="48" rx="11.5" stroke="url(#paint0_linear_157_197)" stroke-width="3"/>
<defs>
<linearGradient id="paint0_linear_157_197" x1="33.6001" y1="3" x2="33.6001" y2="48" gradientUnits="userSpaceOnUse">
<stop stop-color="#F7F273"/>
<stop offset="1" stop-color="#F1AF22"/>
</linearGradient>
</defs>
</svg>
