<svg width="66" height="51" viewBox="0 0 66 51" fill="none" xmlns="http://www.w3.org/2000/svg">
<rect x="1.5" y="1.5" width="63" height="48" rx="11.5" fill="#FC8204"/>
<path d="M26.8383 18.48H23.3883V16.14C24.3283 16.14 25.0783 16.06 25.6383 15.9C26.2183 15.74 26.6783 15.48 27.0183 15.12C27.3583 14.74 27.6583 14.2 27.9183 13.5H30.1383V34.5H26.8383V18.48ZM38.88 34.8C37.28 34.8 36.06 34.35 35.22 33.45C34.38 32.53 33.96 31.22 33.96 29.52V29.13H37.08V29.73C37.08 31.11 37.65 31.8 38.79 31.8C39.41 31.8 39.87 31.61 40.17 31.23C40.47 30.85 40.62 30.18 40.62 29.22V25.2H40.56C39.98 26.42 38.98 27.03 37.56 27.03C36.36 27.03 35.45 26.62 34.83 25.8C34.21 24.98 33.9 23.79 33.9 22.23V18.48C33.9 16.8 34.33 15.5 35.19 14.58C36.05 13.66 37.29 13.2 38.91 13.2C40.53 13.2 41.77 13.66 42.63 14.58C43.49 15.5 43.92 16.8 43.92 18.48V29.34C43.92 32.98 42.24 34.8 38.88 34.8ZM38.91 24.03C40.05 24.03 40.62 23.34 40.62 21.96V18.24C40.62 16.88 40.05 16.2 38.91 16.2C37.77 16.2 37.2 16.88 37.2 18.24V21.96C37.2 23.34 37.77 24.03 38.91 24.03Z" fill="white"/>
<rect x="1.5" y="1.5" width="63" height="48" rx="11.5" stroke="url(#paint0_linear_157_332)" stroke-width="3"/>
<defs>
<linearGradient id="paint0_linear_157_332" x1="33" y1="3" x2="33" y2="48" gradientUnits="userSpaceOnUse">
<stop stop-color="#F7F273"/>
<stop offset="1" stop-color="#F1AF22"/>
</linearGradient>
</defs>
</svg>
