<svg width="67" height="51" viewBox="0 0 67 51" fill="none" xmlns="http://www.w3.org/2000/svg">
<rect x="1.90002" y="1.5" width="63" height="48" rx="11.5" fill="#FC8204"/>
<path d="M28.5642 32.22C28.5642 30.72 28.8042 29.44 29.2842 28.38C29.7642 27.3 30.6242 26.11 31.8642 24.81C33.0842 23.51 33.9242 22.4 34.3842 21.48C34.8642 20.56 35.1042 19.6 35.1042 18.6C35.1042 17.7 34.9542 17.08 34.6542 16.74C34.3742 16.38 33.9542 16.2 33.3942 16.2C32.2542 16.2 31.6842 16.89 31.6842 18.27V20.52H28.5642V18.48C28.5642 16.78 28.9842 15.48 29.8242 14.58C30.6642 13.66 31.8842 13.2 33.4842 13.2C35.0842 13.2 36.3042 13.66 37.1442 14.58C37.9842 15.48 38.4042 16.78 38.4042 18.48C38.4042 19.76 38.0942 21.01 37.4742 22.23C36.8742 23.45 35.8242 24.85 34.3242 26.43C33.3442 27.47 32.6842 28.32 32.3442 28.98C32.0042 29.62 31.8342 30.31 31.8342 31.05V31.5H38.1042V34.5H28.5642V32.22Z" fill="white"/>
<rect x="1.90002" y="1.5" width="63" height="48" rx="11.5" stroke="url(#paint0_linear_141_219)" stroke-width="3"/>
<defs>
<linearGradient id="paint0_linear_141_219" x1="33.4" y1="3" x2="33.4" y2="48" gradientUnits="userSpaceOnUse">
<stop stop-color="#F7F273"/>
<stop offset="1" stop-color="#F1AF22"/>
</linearGradient>
</defs>
</svg>
