<svg width="66" height="51" viewBox="0 0 66 51" fill="none" xmlns="http://www.w3.org/2000/svg">
<rect x="1.5" y="1.5" width="63" height="48" rx="11.5" fill="#FC8204"/>
<path d="M33.0841 34.8C31.4641 34.8 30.2241 34.34 29.3641 33.42C28.5041 32.5 28.0741 31.2 28.0741 29.52V18.66C28.0741 15.02 29.7541 13.2 33.1141 13.2C34.7141 13.2 35.9341 13.66 36.7741 14.58C37.6141 15.48 38.0341 16.78 38.0341 18.48V18.87H34.9141V18.27C34.9141 16.89 34.3441 16.2 33.2041 16.2C32.5841 16.2 32.1241 16.39 31.8241 16.77C31.5241 17.15 31.3741 17.82 31.3741 18.78V22.8H31.4341C32.0141 21.58 33.0141 20.97 34.4341 20.97C35.6341 20.97 36.5441 21.38 37.1641 22.2C37.7841 23.02 38.0941 24.21 38.0941 25.77V29.52C38.0941 31.2 37.6641 32.5 36.8041 33.42C35.9441 34.34 34.7041 34.8 33.0841 34.8ZM33.0841 31.8C34.2241 31.8 34.7941 31.12 34.7941 29.76V26.04C34.7941 24.66 34.2241 23.97 33.0841 23.97C31.9441 23.97 31.3741 24.66 31.3741 26.04V29.76C31.3741 31.12 31.9441 31.8 33.0841 31.8Z" fill="white"/>
<rect x="1.5" y="1.5" width="63" height="48" rx="11.5" stroke="url(#paint0_linear_157_107)" stroke-width="3"/>
<defs>
<linearGradient id="paint0_linear_157_107" x1="33" y1="3" x2="33" y2="48" gradientUnits="userSpaceOnUse">
<stop stop-color="#F7F273"/>
<stop offset="1" stop-color="#F1AF22"/>
</linearGradient>
</defs>
</svg>
