<svg width="67" height="51" viewBox="0 0 67 51" fill="none" xmlns="http://www.w3.org/2000/svg">
<rect x="1.70007" y="1.5" width="63" height="48" rx="11.5" fill="#FC8204"/>
<path d="M33.0742 34.8C31.4742 34.8 30.2542 34.35 29.4142 33.45C28.5742 32.53 28.1542 31.22 28.1542 29.52V29.13H31.2742V29.73C31.2742 31.11 31.8442 31.8 32.9842 31.8C33.6042 31.8 34.0642 31.61 34.3642 31.23C34.6642 30.85 34.8142 30.18 34.8142 29.22V25.2H34.7542C34.1742 26.42 33.1742 27.03 31.7542 27.03C30.5542 27.03 29.6442 26.62 29.0242 25.8C28.4042 24.98 28.0942 23.79 28.0942 22.23V18.48C28.0942 16.8 28.5242 15.5 29.3842 14.58C30.2442 13.66 31.4842 13.2 33.1042 13.2C34.7242 13.2 35.9642 13.66 36.8242 14.58C37.6842 15.5 38.1142 16.8 38.1142 18.48V29.34C38.1142 32.98 36.4342 34.8 33.0742 34.8ZM33.1042 24.03C34.2442 24.03 34.8142 23.34 34.8142 21.96V18.24C34.8142 16.88 34.2442 16.2 33.1042 16.2C31.9642 16.2 31.3942 16.88 31.3942 18.24V21.96C31.3942 23.34 31.9642 24.03 33.1042 24.03Z" fill="white"/>
<rect x="1.70007" y="1.5" width="63" height="48" rx="11.5" stroke="url(#paint0_linear_157_377)" stroke-width="3"/>
<defs>
<linearGradient id="paint0_linear_157_377" x1="33.2001" y1="3" x2="33.2001" y2="48" gradientUnits="userSpaceOnUse">
<stop stop-color="#F7F273"/>
<stop offset="1" stop-color="#F1AF22"/>
</linearGradient>
</defs>
</svg>
