<svg width="50" height="50" viewBox="0 0 50 50" fill="none" xmlns="http://www.w3.org/2000/svg">
<rect x="1.5" y="1.5" width="47" height="47" rx="23.5" fill="#FC8204"/>
<path d="M23.875 32.3001L17.275 25.7001C17.175 25.6001 17.104 25.4917 17.062 25.3751C17.0207 25.2584 17 25.1334 17 25.0001C17 24.8667 17.0207 24.7417 17.062 24.6251C17.104 24.5084 17.175 24.4001 17.275 24.3001L23.875 17.7001C24.0583 17.5167 24.2873 17.4207 24.562 17.4121C24.8373 17.4041 25.075 17.5001 25.275 17.7001C25.475 17.8834 25.5793 18.1124 25.588 18.3871C25.596 18.6624 25.5 18.9001 25.3 19.1001L20.4 24.0001H31.575C31.8583 24.0001 32.096 24.0957 32.288 24.2871C32.4793 24.4791 32.575 24.7167 32.575 25.0001C32.575 25.2834 32.4793 25.5207 32.288 25.7121C32.096 25.9041 31.8583 26.0001 31.575 26.0001H20.4L25.3 30.9001C25.4833 31.0834 25.5793 31.3167 25.588 31.6001C25.596 31.8834 25.5 32.1167 25.3 32.3001C25.1167 32.5001 24.8833 32.6001 24.6 32.6001C24.3167 32.6001 24.075 32.5001 23.875 32.3001Z" fill="white"/>
<rect x="1.5" y="1.5" width="47" height="47" rx="23.5" stroke="url(#paint0_linear_104_4007)" stroke-width="3"/>
<defs>
<linearGradient id="paint0_linear_104_4007" x1="25" y1="3" x2="25" y2="47" gradientUnits="userSpaceOnUse">
<stop stop-color="#F7F273"/>
<stop offset="1" stop-color="#F1AF22"/>
</linearGradient>
</defs>
</svg>
