<svg width="218" height="56" viewBox="0 0 218 56" fill="none" xmlns="http://www.w3.org/2000/svg">
<rect x="1.5" y="1.5" width="215" height="53" rx="11.5" fill="#FC8204"/>
<path d="M87.9937 18H92.8537C94.4937 18 95.7237 18.44 96.5437 19.32C97.3637 20.2 97.7737 21.49 97.7737 23.19V25.26C97.7737 26.96 97.3637 28.25 96.5437 29.13C95.7237 30.01 94.4937 30.45 92.8537 30.45H91.2937V39H87.9937V18ZM92.8537 27.45C93.3937 27.45 93.7937 27.3 94.0537 27C94.3337 26.7 94.4737 26.19 94.4737 25.47V22.98C94.4737 22.26 94.3337 21.75 94.0537 21.45C93.7937 21.15 93.3937 21 92.8537 21H91.2937V27.45H92.8537ZM99.5659 18H102.866V36H108.296V39H99.5659V18ZM112.546 18H117.016L120.436 39H117.136L116.536 34.83V34.89H112.786L112.186 39H109.126L112.546 18ZM116.146 32.04L114.676 21.66H114.616L113.176 32.04H116.146ZM123.69 30.06L119.7 18H123.21L125.46 25.71H125.52L127.77 18H130.98L126.99 30.06V39H123.69V30.06Z" fill="white"/>
<rect x="1.5" y="1.5" width="215" height="53" rx="11.5" stroke="url(#paint0_linear_104_3529)" stroke-width="3"/>
<defs>
<linearGradient id="paint0_linear_104_3529" x1="109" y1="3" x2="109" y2="53" gradientUnits="userSpaceOnUse">
<stop stop-color="#F7F273"/>
<stop offset="1" stop-color="#F1AF22"/>
</linearGradient>
</defs>
</svg>
