<svg width="67" height="51" viewBox="0 0 67 51" fill="none" xmlns="http://www.w3.org/2000/svg">
<rect x="2.30005" y="1.5" width="63" height="48" rx="11.5" fill="#FC8204"/>
<path d="M27.6383 18.48H24.1883V16.14C25.1283 16.14 25.8783 16.06 26.4383 15.9C27.0183 15.74 27.4783 15.48 27.8183 15.12C28.1583 14.74 28.4583 14.2 28.7183 13.5H30.9383V34.5H27.6383V18.48ZM39.8 34.8C38.14 34.8 36.86 34.36 35.96 33.48C35.08 32.58 34.64 31.29 34.64 29.61V27.75C34.64 26.71 34.81 25.84 35.15 25.14C35.49 24.42 36.04 23.86 36.8 23.46V23.4C36.1 23.02 35.58 22.5 35.24 21.84C34.92 21.16 34.76 20.3 34.76 19.26V18.39C34.76 16.71 35.19 15.43 36.05 14.55C36.93 13.65 38.18 13.2 39.8 13.2C41.42 13.2 42.66 13.65 43.52 14.55C44.4 15.43 44.84 16.71 44.84 18.39V19.26C44.84 21.26 44.16 22.64 42.8 23.4V23.46C43.56 23.86 44.11 24.42 44.45 25.14C44.79 25.84 44.96 26.71 44.96 27.75V29.61C44.96 31.29 44.51 32.58 43.61 33.48C42.73 34.36 41.46 34.8 39.8 34.8ZM39.8 22.05C40.96 22.05 41.54 21.35 41.54 19.95V18.3C41.54 16.9 40.96 16.2 39.8 16.2C38.64 16.2 38.06 16.9 38.06 18.3V19.95C38.06 21.35 38.64 22.05 39.8 22.05ZM39.8 31.8C41.04 31.8 41.66 31.01 41.66 29.43V27.42C41.66 25.84 41.04 25.05 39.8 25.05C38.56 25.05 37.94 25.84 37.94 27.42V29.43C37.94 31.01 38.56 31.8 39.8 31.8Z" fill="white"/>
<rect x="2.30005" y="1.5" width="63" height="48" rx="11.5" stroke="url(#paint0_linear_157_638)" stroke-width="3"/>
<defs>
<linearGradient id="paint0_linear_157_638" x1="33.8" y1="3" x2="33.8" y2="48" gradientUnits="userSpaceOnUse">
<stop stop-color="#F7F273"/>
<stop offset="1" stop-color="#F1AF22"/>
</linearGradient>
</defs>
</svg>
